# xmcd
#
# Track frame offsets:
#	150
#	19478
#	42902
#	64555
#	83918
#	104813
#	123221
#	137345
#	157411
#	171626
#	191532
#	214886
#	230097
#	248450
#	264630
#	283296
#	300910
#	318563
#	336219
#
# Disc length: 4698 seconds
#
# Revision: 1
# Processed by: cddbd v1.4PL0 Copyright (c) Steve Scherf et al.
# Submitted via: audiograbber 1.80
#
DISCID=20125813
DTITLE=Robbie Williams - collection
DYEAR=1900
DGENRE=
TTITLE0=Supreme
TTITLE1=No regrets
TTITLE2=Kids
TTITLE3=Rock D.J.
TTITLE4=Strong
TTITLE5=Millenium
TTITLE6=Heaven From Here
TTITLE7=Karma Killer
TTITLE8=Life Thru a Lens
TTITLE9=Angels
TTITLE10=These Dreams
TTITLE11=Better Man
TTITLE12=Phoenix From The Flames
TTITLE13=One of God's Better People
TTITLE14=If It's Hurting You
TTITLE15=Lazy Days
TTITLE16=Squth of The Border
TTITLE17=Clean
TTITLE18=Man Mashine
EXTD=
EXTT0=
EXTT1=
EXTT2=
EXTT3=
EXTT4=
EXTT5=
EXTT6=
EXTT7=
EXTT8=
EXTT9=
EXTT10=
EXTT11=
EXTT12=
EXTT13=
EXTT14=
EXTT15=
EXTT16=
EXTT17=
EXTT18=
PLAYORDER=
